HIERARCHY
ROOT Hips
{
	OFFSET 0.000000 0.000000 0.000000
	CHANNELS 6 Xposition Yposition Zposition Xrotation Yrotation Zrotation
	JOINT LeftUpLeg_virtual
	{
		OFFSET 0.000000 0.000000 0.000000
		CHANNELS 3 Xrotation Yrotation Zrotation
		JOINT LeftUpLeg
		{
			OFFSET 15.427100 -6.655098 0.678600
			CHANNELS 3 Xrotation Yrotation Zrotation
			JOINT LeftLeg
			{
				OFFSET 4.081073 -39.591068 13.024000
				CHANNELS 3 Xrotation Yrotation Zrotation
				JOINT LeftFoot
				{
					OFFSET -4.081074 -37.707932 -15.979700
					CHANNELS 3 Xrotation Yrotation Zrotation
					JOINT LeftToeBase
					{
						OFFSET 5.346399 -15.068900 20.645000
						CHANNELS 3 Xrotation Yrotation Zrotation
						JOINT LeftToe_End
						{
							OFFSET 2.754700 0.931300 11.300900
							CHANNELS 3 Xrotation Yrotation Zrotation
							End Site
							{
								OFFSET 0 0 0
							}
						}
					}
				}
			}
		}
	}
	JOINT RightUpLeg_virtual
	{
		OFFSET 0.000000 0.000000 0.000000
		CHANNELS 3 Xrotation Yrotation Zrotation
		JOINT RightUpLeg
		{
			OFFSET -15.569500 -6.655098 0.678600
			CHANNELS 3 Xrotation Yrotation Zrotation
			JOINT RightLeg
			{
				OFFSET -4.081825 -39.591045 13.023800
				CHANNELS 3 Xrotation Yrotation Zrotation
				JOINT RightFoot
				{
					OFFSET 4.081824 -37.707954 -15.979600
					CHANNELS 3 Xrotation Yrotation Zrotation
					JOINT RightToeBase
					{
						OFFSET -5.346400 -15.068900 20.645000
						CHANNELS 3 Xrotation Yrotation Zrotation
						JOINT RightToe_End
						{
							OFFSET -2.754700 0.931300 11.300900
							CHANNELS 3 Xrotation Yrotation Zrotation
							End Site
							{
								OFFSET 0 0 0
							}
						}
					}
				}
			}
		}
	}
	JOINT Spine_virtual
	{
		OFFSET 0.000000 0.000000 0.000000
		CHANNELS 3 Xrotation Yrotation Zrotation
		JOINT Spine
		{
			OFFSET -0.279200 12.230698 -2.892100
			CHANNELS 3 Xrotation Yrotation Zrotation
			JOINT Spine1
			{
				OFFSET -0.232667 10.192268 -1.242267
				CHANNELS 3 Xrotation Yrotation Zrotation
				JOINT Spine1_split
				{
					OFFSET -0.232667 10.192268 -1.242267
					CHANNELS 3 Xrotation Yrotation Zrotation
					JOINT Spine2
					{
						OFFSET -0.232667 10.192268 -1.242267
						CHANNELS 3 Xrotation Yrotation Zrotation
						JOINT Neck_virtual
						{
							OFFSET 0.000000 0.000000 0.000000
							CHANNELS 3 Xrotation Yrotation Zrotation
							JOINT Neck
							{
								OFFSET -0.418800 17.814194 8.416900
								CHANNELS 3 Xrotation Yrotation Zrotation
								JOINT Head
								{
									OFFSET 0.000000 7.031097 3.806800
									CHANNELS 3 Xrotation Yrotation Zrotation
									JOINT HeadTop_End
									{
										OFFSET 0.000000 24.646606 12.978600
										CHANNELS 3 Xrotation Yrotation Zrotation
										End Site
										{
											OFFSET 0 0 0
										}
									}
								}
							}
						}
						JOINT LeftShoulder_virtual
						{
							OFFSET 0.000000 0.000000 0.000000
							CHANNELS 3 Xrotation Yrotation Zrotation
							JOINT LeftShoulder
							{
								OFFSET 8.476499 7.247704 -3.868750
								CHANNELS 3 Xrotation Yrotation Zrotation
								JOINT LeftShoulder_split
								{
									OFFSET 8.476499 7.247704 -3.868750
									CHANNELS 3 Xrotation Yrotation Zrotation
									JOINT LeftArm
									{
										OFFSET 9.308998 -2.777710 0.208600
										CHANNELS 3 Xrotation Yrotation Zrotation
										JOINT LeftForeArm
										{
											OFFSET 29.972298 0.000000 0.000000
											CHANNELS 3 Xrotation Yrotation Zrotation
											JOINT LeftHand
											{
												OFFSET 26.026505 0.000000 0.000000
												CHANNELS 3 Xrotation Yrotation Zrotation
												End Site
												{
													OFFSET 0 0 0
												}
											}
										}
									}
								}
							}
						}
						JOINT RightShoulder_virtual
						{
							OFFSET 0.000000 0.000000 0.000000
							CHANNELS 3 Xrotation Yrotation Zrotation
							JOINT RightShoulder
							{
								OFFSET -7.570500 7.247704 -3.868750
								CHANNELS 3 Xrotation Yrotation Zrotation
								JOINT RightShoulder_split
								{
									OFFSET -7.570500 7.247704 -3.868750
									CHANNELS 3 Xrotation Yrotation Zrotation
									JOINT RightArm
									{
										OFFSET -9.308998 -2.777710 0.208500
										CHANNELS 3 Xrotation Yrotation Zrotation
										JOINT RightForeArm
										{
											OFFSET -29.972300 0.000000 0.000000
											CHANNELS 3 Xrotation Yrotation Zrotation
											JOINT RightHand
											{
												OFFSET -26.026505 0.000000 0.000000
												CHANNELS 3 Xrotation Yrotation Zrotation
												End Site
												{
													OFFSET 0 0 0
												}
											}
										}
									}
								}
							}
						}
					}
				}
			}
		}
	}
}
MOTION
Frames: 4
Frame Time: 0.03333333
1.201851 93.912086 -2.628815 0.000000 0.000000 0.000000 3.704472 -30.020423 0.571185 -16.063239 19.220064 13.167579 18.518600 11.067719 -0.599014 -1.817016 -2.335025 -7.471655 -0.438308 0.095987 -0.291973 0.000000 0.000000 0.000000 6.626880 -28.865100 1.330228 -7.158314 4.027919 -6.834587 11.273214 9.901557 2.355907 -6.375534 -2.421278 5.098670 2.609126 0.372296 -0.415956 0.000000 0.000000 0.000000 1.698240 -31.395245 -1.707822 7.253827 1.605871 -1.802071 0.188149 0.930094 2.730770 2.517527 2.018582 -0.242407 0.000000 0.000000 0.000000 0.839317 0.763043 4.078572 -2.289611 23.899419 -9.880224 -2.471466 10.433338 6.733095 0.000000 0.000000 0.000000 -0.027706 1.125070 2.815976 0.685331 -13.552860 1.857553 -2.533506 -1.124867 -2.995086 -56.341144 -1.010289 -35.044598 11.840211 -61.236102 14.732937 0.000000 0.000000 0.000000 1.210125 1.160299 3.529394 4.544475 3.652663 8.379056 1.440936 2.366895 -3.792455 -1.265393 -11.345740 65.522456 15.189272 32.042193 -3.240211 0.000000 0.000000 0.000000 
1.604827 93.800415 -2.973434 0.000000 0.000000 0.000000 3.896796 -29.443860 1.038563 -15.892023 18.286882 13.199063 18.352927 10.667979 -0.828850 -1.679495 -2.544856 -7.099690 0.216476 0.052604 -0.445521 0.000000 0.000000 0.000000 6.412673 -27.981125 1.563194 -7.571452 3.211934 -7.619251 11.052029 9.876981 2.175960 -6.384407 -2.327798 4.247724 4.661698 0.401778 -0.313751 0.000000 0.000000 0.000000 1.771097 -31.899637 -1.315335 7.283199 1.412497 -1.453809 0.158814 0.668732 2.638778 1.543068 3.200310 -0.470080 0.000000 0.000000 0.000000 1.147937 0.448419 3.933015 -1.908531 23.607415 -9.768619 -3.103527 11.129806 6.004543 0.000000 0.000000 0.000000 -0.131505 0.939359 2.780539 0.440085 -12.584239 1.465556 -0.820015 -2.326337 -2.392232 -56.925638 -1.312337 -35.569836 12.810488 -61.948887 15.004834 0.000000 0.000000 0.000000 0.992614 0.792174 3.387589 4.211451 3.491695 7.644258 1.119866 1.508005 -2.896934 -1.622736 -10.415276 66.356790 14.421072 30.241598 -2.588827 0.000000 0.000000 0.000000 
1.979686 93.512909 -3.301956 0.000000 0.000000 0.000000 4.231827 -28.958486 1.723973 -15.755797 17.412092 13.356748 17.689739 10.731532 -1.125308 -1.881393 -2.088855 -6.305997 0.886015 -0.021013 -0.661898 0.000000 0.000000 0.000000 6.224820 -26.873302 1.931224 -9.016055 2.168515 -8.901554 11.807833 10.351406 2.020956 -5.497418 -1.880921 4.367614 4.392790 0.395766 -0.280415 0.000000 0.000000 0.000000 2.154340 -32.333965 -0.686137 7.673468 1.155265 -0.481491 0.165259 0.346432 2.064162 0.917868 3.926306 -0.389679 0.000000 0.000000 0.000000 1.593554 0.103666 3.290980 -2.111024 22.884026 -10.209002 -4.633616 12.229373 4.755563 0.000000 0.000000 0.000000 -0.075646 0.775438 2.322879 0.153215 -11.178804 0.549667 0.694165 -3.382498 -1.252802 -56.686253 -1.213175 -35.788405 11.191599 -62.830774 12.852165 0.000000 0.000000 0.000000 0.800002 0.388768 2.759793 3.801976 3.552615 5.746652 0.476269 0.801793 -1.821976 -1.397142 -10.306785 68.568139 12.925299 27.892223 -1.359222 0.000000 0.000000 0.000000 
2.550866 92.953545 -3.667557 0.000000 0.000000 0.000000 4.550878 -29.039649 2.467579 -15.863032 16.491879 13.555732 17.210311 10.881261 -1.493029 -2.505010 -1.398429 -5.683904 0.980060 -0.109831 -0.750287 0.000000 0.000000 0.000000 6.037493 -26.279520 2.425017 -11.473143 1.174392 -10.377287 13.715296 11.131471 1.827303 -4.457693 -1.337791 4.730218 2.721276 0.312022 -0.187860 0.000000 0.000000 0.000000 2.834939 -32.950564 0.155486 8.462503 0.899938 0.888707 0.217698 0.035389 1.115347 1.007462 4.164875 0.137836 0.000000 0.000000 0.000000 2.000682 -0.169768 2.231881 -2.703691 21.634932 -11.160347 -6.733124 13.452880 3.212843 0.000000 0.000000 0.000000 0.157501 0.631716 1.492833 -0.126072 -9.671836 -0.688668 1.908427 -4.003770 -0.129958 -55.842834 -0.258588 -34.947066 6.590358 -63.601492 8.022499 0.000000 0.000000 0.000000 0.675129 0.048771 1.727341 3.465556 3.652321 2.852278 -0.103918 0.186493 -0.837104 -0.132514 -11.232077 71.979361 11.068183 26.567576 0.061037 0.000000 0.000000 0.000000 
